<svg xmlns="http://www.w3.org/2000/svg" width="16.935" height="44.798" viewBox="0 0 16.935 44.798">
  <path id="Trazado_490" data-name="Trazado 490" d="M493.865,800.351l-.128-6.969c3.179-4.817,2.441-9.763-2.055-13.359V778.77h.739v-3.211a1.946,1.946,0,0,0-1.959-1.959H484.3a1.946,1.946,0,0,0-1.959,1.959v3.211h.739v1.252c-2.248,1.863-6.391,6.551-2.055,13.327l-.128,7.033a17.486,17.486,0,0,0-1.734,11.368c.771,3.886,1.477,5.523,2.7,6.262a2.9,2.9,0,0,0,1.477.385,12.213,12.213,0,0,0,3.468-.8l.064-.032h1a12.092,12.092,0,0,0,3.4.8,2.576,2.576,0,0,0,1.445-.385c1.381-.8,1.991-2.858,2.7-6.359A15.875,15.875,0,0,0,493.865,800.351ZM484.327,775.4h6.134a.207.207,0,0,1,.193.193v1.991h-6.519v-1.991A.207.207,0,0,1,484.327,775.4Zm.1,5.877a.98.98,0,0,0,.45-1.028v-.867h5.042v.9a.98.98,0,0,0,.45,1.028c2.344,1.8,5.684,5.652,1.734,11.368l-.161.225.128,6.84H482.69l.1-5.363h7.45v-1.766h-7.643C478.932,786.927,482.144,783.074,484.424,781.275ZM493.7,811.3c-.45,2.28-1.028,4.689-1.863,5.2-.578.353-1.83-.064-3.565-.61l-.128-.032h-1.541l-.321.1c-1.7.546-2.89.931-3.5.578-.867-.514-1.445-2.987-1.863-5.074a15.592,15.592,0,0,1,1.445-9.987h10.116A14.732,14.732,0,0,1,493.7,811.3Z" transform="translate(-478.853 -773.6)" fill="#0069a3"/>
</svg>
