<svg id="Grupo_344" data-name="Grupo 344" xmlns="http://www.w3.org/2000/svg" width="18.176" height="30.957" viewBox="0 0 18.176 30.957">
  <path id="Trazado_455" data-name="Trazado 455" d="M866.658,644.416a2.858,2.858,0,1,0-2.858-2.858A2.864,2.864,0,0,0,866.658,644.416Zm0-4.207a1.381,1.381,0,1,1-1.381,1.381A1.371,1.371,0,0,1,866.658,640.209Z" transform="translate(-858.341 -629.226)" fill="#0069a3"/>
  <path id="Trazado_456" data-name="Trazado 456" d="M856.912,663.824a2.312,2.312,0,1,0-2.312-2.312A2.3,2.3,0,0,0,856.912,663.824Zm0-3.147a.835.835,0,1,1-.835.835A.829.829,0,0,1,856.912,660.677Z" transform="translate(-852.095 -643.143)" fill="#0069a3"/>
  <path id="Trazado_457" data-name="Trazado 457" d="M868.352,677.2a1.252,1.252,0,1,0,1.252,1.252A1.275,1.275,0,0,0,868.352,677.2Zm-.064,1.252a.064.064,0,1,1,.128,0A.065.065,0,1,1,868.288,678.452Z" transform="translate(-860.581 -655.363)" fill="#0069a3"/>
  <path id="Trazado_458" data-name="Trazado 458" d="M864.976,614.5l-1.638-2.055v-.8h-2.473l1.381-1-1.028-1.445-3.4,2.441h-9.377v.8L846.8,614.5v22.8l1.638,2.055v.8h14.9v-.8l1.638-2.055Zm-5.684,1.959c.546,1.156,1.766,4.432-.161,7.418-2.023,3.147-3.854,7.226-1.092,11.432h-9.506V616.425h10.758Zm3.565,20.649-1,1.253.064.064H849.819l.064-.064-1-1.253Zm-2.633-1.766c-2.537-2.987-2.441-6.069.385-10.5a9.19,9.19,0,0,0,.578-8.382h1.991V635.34Zm-11.336-20.649,1-1.252-.064-.064h12.107l-.064.064,1,1.252Z" transform="translate(-846.8 -609.2)" fill="#0069a3"/>
</svg>
