<svg xmlns="http://www.w3.org/2000/svg" width="28.293" height="32.545" viewBox="0 0 28.293 32.545">
  <path id="Trazado_812" data-name="Trazado 812" d="M791.7,509.527v1.086m8.711-1.086v1.086m-.122,6.349c0,1.754-1.754,3.17-3.917,3.17s-3.917-1.424-3.917-3.17m0,0H800.3m7.174-10.613a3.452,3.452,0,0,1,1.807-.2c.842.148,1.2,7.33-1.676,6.835-.53-.1-.278-.07-.4-.139-.191,1.642-.512,5.784-1.034,6.8-1.094,2.18-6.583,5.5-9.615,5.5s-8.511-3.326-9.614-5.5c-.512-1.016-.834-5.159-1.034-6.8-.122.07.13.043-.4.139-2.875.5-2.51-6.7-1.668-6.835a3.452,3.452,0,0,1,1.807.2m21.557,1.876c-.261-.043-.539-6.6-4.221-7.382-6.166,7.313-16.693-2.875-17.214,6.54m21.435.842c-.434-.469.842-3.8,1.329-4.56,2.154-3.37-1.207-7.582-4.273-4.9,1.311-3.344-5.133-4.456-8.841-4.681-4.152-.252-8.355.886-10.622,2.936-2.927,2.649-2.128,4.69-.078,7.382a20.371,20.371,0,0,1,1.251,3.726" transform="translate(-782.342 -493.318)" fill="none" stroke="#0069a3" stroke-linecap="round" stroke-linejoin="round" stroke-width="1.44"/>
</svg>
