<svg xmlns="http://www.w3.org/2000/svg" width="18.313" height="48.819" viewBox="0 0 18.313 48.819">
  <path id="Trazado_491" data-name="Trazado 491" d="M121.679,781.2v-8.379a1.622,1.622,0,0,0-1.622-1.622h-5a1.622,1.622,0,0,0-1.622,1.622V781.2a5.438,5.438,0,0,0-5.135,5.406v30.947a2.48,2.48,0,0,0,2.466,2.466h13.379a2.48,2.48,0,0,0,2.466-2.466V786.606A5.333,5.333,0,0,0,121.679,781.2Zm-6.318-3.75h4.493v3.514h-4.493Zm4.46-4.392v2.534h-4.493v-2.534Zm-6.047,9.966h7.433a3.583,3.583,0,0,1,3.581,3.581V802.89l-14.595.135V792.417H123.1v-1.858H110.226v-3.953A3.554,3.554,0,0,1,113.773,783.025Zm10.406,35.136H110.8a.606.606,0,0,1-.608-.608V804.883l14.595-.135v12.771A.614.614,0,0,1,124.179,818.16Z" transform="translate(-108.3 -771.2)" fill="#0069a3"/>
</svg>
