<svg xmlns="http://www.w3.org/2000/svg" width="14.285" height="42.032" viewBox="0 0 14.285 42.032">
  <g id="Grupo_346" data-name="Grupo 346" transform="translate(-666.158 -773.2)">
    <path id="Trazado_487" data-name="Trazado 487" d="M678.846,807.3a40.8,40.8,0,0,1,1.315-7.623,12.539,12.539,0,0,0-2.541-10.344c-.777-.9-1.106-3.378-1.166-4.693V781.8h-6.308v2.84c-.03.9-.3,3.707-1.166,4.723a12.594,12.594,0,0,0-2.541,10.344,40.8,40.8,0,0,1,1.315,7.623c.149,2.571-1.495,11.689-1.495,11.779l-.03.239.807,1.913h12.5l.807-1.913-.03-.239C680.341,818.989,678.7,809.871,678.846,807.3Zm-.149,11.838-.209.448H668.144l-.209-.448c.269-1.525,1.644-9.387,1.495-11.928a43.643,43.643,0,0,0-1.375-7.922,11.011,11.011,0,0,1,2.182-8.879,9.011,9.011,0,0,0,1.435-4.365H674V784.4h-2.212v-.957h3.019v1.226c0,.419.149,4.1,1.555,5.74a10.931,10.931,0,0,1,2.182,8.879,43.643,43.643,0,0,0-1.375,7.922C677.052,809.752,678.428,817.614,678.7,819.139Z" transform="translate(0 -6.029)" fill="#0069a3"/>
    <rect id="Rect치ngulo_297" data-name="Rect치ngulo 297" width="7.085" height="1.644" transform="translate(669.818 773.2)" fill="#0069a3"/>
    <rect id="Rect치ngulo_298" data-name="Rect치ngulo 298" width="7.085" height="1.644" transform="translate(669.818 810.957)" fill="#0069a3"/>
  </g>
</svg>
