<svg id="Grupo_345" data-name="Grupo 345" xmlns="http://www.w3.org/2000/svg" width="26.653" height="35.55" viewBox="0 0 26.653 35.55">
  <path id="Trazado_450" data-name="Trazado 450" d="M490.153,101.669a.89.89,0,0,0,.1-.931.907.907,0,0,0-.8-.482H482.96a8.023,8.023,0,0,1,4.014-3.886L486.4,94.7c-2.762.931-4.56,3.693-5.459,5.556H464.591a.946.946,0,0,0-.8.482.828.828,0,0,0,.1.931l12.107,16.121v10.694h-3.436v1.766h8.9v-1.766h-3.725V117.79Zm-8.317,3.468a1.559,1.559,0,0,1-.546,1.06,1.576,1.576,0,0,1-1.124.353,1.55,1.55,0,0,1-.867-2.73,1.638,1.638,0,0,1,1-.353h.128a1.559,1.559,0,0,1,1.06.546A1.624,1.624,0,0,1,481.836,105.137ZM469.7,106.389h6.069v-1.766H468.38l-1.959-2.6h12.492a3.126,3.126,0,0,0-.771.482,3.3,3.3,0,0,0,1.895,5.813h.257a3.32,3.32,0,0,0,2.537-5.459,3.873,3.873,0,0,0-.771-.674l.1-.193h5.556l-10.758,14Z" transform="translate(-463.687 -94.7)" fill="#0069a3"/>
  <path id="Trazado_451" data-name="Trazado 451" d="M502.524,147.926a1.69,1.69,0,0,0,1.7-1.574,1.657,1.657,0,0,0-.417-1.252,1.785,1.785,0,0,0-1.156-.61,1.657,1.657,0,0,0-1.252.417,1.785,1.785,0,0,0-.61,1.156,1.657,1.657,0,0,0,.417,1.252,1.785,1.785,0,0,0,1.156.61Zm-.546-1.766a.444.444,0,0,1,.193-.353.483.483,0,0,1,.353-.128h.032a.532.532,0,1,1-.1,1.06.444.444,0,0,1-.353-.193A.561.561,0,0,1,501.978,146.16Z" transform="translate(-488.872 -128.497)" fill="#0069a3"/>
  <path id="Trazado_452" data-name="Trazado 452" d="M496.566,134.636a2,2,0,1,0-2.152,1.83h.161a1.879,1.879,0,0,0,1.285-.482A1.93,1.93,0,0,0,496.566,134.636Zm-1.477.482a.962.962,0,0,1-.578.193.831.831,0,0,1-.546-.289.962.962,0,0,1-.193-.578.8.8,0,0,1,.8-.739h.064a.8.8,0,0,1,.739.867A1.012,1.012,0,0,1,495.089,135.117Z" transform="translate(-483.299 -120.345)" fill="#0069a3"/>
</svg>
