<svg xmlns="http://www.w3.org/2000/svg" width="35.668" height="35.669" viewBox="0 0 35.668 35.669">
  <g id="_3734489-candy-childhood-dessert-halloween-lollipop-sweet-trick-or-treat_108939" data-name="3734489-candy-childhood-dessert-halloween-lollipop-sweet-trick-or-treat_108939" transform="translate(-79.902 -79.898)">
    <path id="Trazado_809" data-name="Trazado 809" d="M181.519,180.685a7.718,7.718,0,1,0,10.914,0A7.726,7.726,0,0,0,181.519,180.685Zm-.908,7.565,6.871-6.871a.5.5,0,0,0,0-.714h0a.505.505,0,0,0-.714,0l-6.428,6.428a6.706,6.706,0,0,1,11.008-6.036l-9.456,9.456A6.657,6.657,0,0,1,180.611,188.25Zm11.108,2.635a6.715,6.715,0,0,1-9.114.342l9.456-9.456a6.654,6.654,0,0,1,1.283,2.26l-6.963,6.963a.505.505,0,0,0,0,.714h0a.5.5,0,0,0,.714,0l6.52-6.52a6.809,6.809,0,0,1,.068.954A6.664,6.664,0,0,1,191.719,190.885Z" transform="translate(-89.198 -88.451)" fill="#0069a3" stroke="#0069a3" stroke-width="0.5"/>
    <path id="Trazado_810" data-name="Trazado 810" d="M305.926,87.568l-2.418-.037-.037-2.418-2.418-.037-.037-2.418L298.6,82.62l-.037-2.418-3.26-.05L292.027,88.6a.5.5,0,0,0,.289.653h0a.505.505,0,0,0,.653-.289l3.019-7.8,1.577.024.027,1.782-2.376,3.87a.505.505,0,0,0,.166.695h0a.505.505,0,0,0,.695-.166l2.3-3.75,1.641.025.026,1.714-5.088,5.088a.505.505,0,0,0,0,.714h0a.505.505,0,0,0,.714,0l5.087-5.087,1.715.026.025,1.631-3.837,2.21a.505.505,0,0,0-.186.69h0a.505.505,0,0,0,.69.186l3.974-2.289,1.789.027.024,1.577-7.926,3.068a.5.5,0,0,0-.289.653h0a.5.5,0,0,0,.653.289l8.582-3.322Z" transform="translate(-190.658)" fill="#0069a3" stroke="#0069a3" stroke-width="0.5"/>
    <path id="Trazado_811" data-name="Trazado 811" d="M90.143,304.507l-1.577-.024-.027-1.782,2.376-3.87a.505.505,0,0,0-.166-.695h0a.505.505,0,0,0-.695.166l-2.3,3.75-1.641-.025-.026-1.714,5.088-5.088a.505.505,0,0,0,0-.714h0a.505.505,0,0,0-.714,0L85.371,299.6l-1.715-.026-.025-1.631,3.837-2.21a.5.5,0,0,0,.186-.69h0a.505.505,0,0,0-.69-.186l-3.974,2.289-1.789-.027-.024-1.577,7.925-3.068a.505.505,0,0,0,.289-.653h0a.505.505,0,0,0-.653-.289l-8.582,3.322.05,3.26,2.418.037.037,2.418,2.418.037.037,2.418,2.418.037.037,2.418,3.26.05,3.273-8.453a.505.505,0,0,0-.289-.653h0a.5.5,0,0,0-.653.289Z" transform="translate(0 -190.214)" fill="#0069a3" stroke="#0069a3" stroke-width="0.5"/>
  </g>
</svg>
