<svg xmlns="http://www.w3.org/2000/svg" width="33.449" height="35.415" viewBox="0 0 33.449 35.415">
  <path id="Trazado_808" data-name="Trazado 808" d="M546.277,442.282l2.643,2.643m-.546-4.741,2.643,2.643m-.546-4.732,2.643,2.643M552.561,436l2.643,2.643m-.546-4.741,2.643,2.643m-28.871,26.134a2,2,0,0,0,2.832,0l4.929-4.92c3.02-3.02,6.181-7.573,11.025-6.51h0a2.029,2.029,0,0,0,1.421-.583l10.913-10.913a2,2,0,0,0,0-2.832c-.781-.781-1.759-.489-2.54.292l-10.329,10.329c-8.071-.113-20.63,12.945-18.25,15.137Zm20.028-32.455-3.547,4.167c-2.813,2.813-3.866,2.493-6.98,2.484h-.019l2.794,2.785c.574.574,3.02,1.722,4.76.1l6.265-6.265c1.995-2.1-1.072-5.6-3.274-3.274Z" transform="translate(-527.408 -428.734)" fill="none" stroke="#0069a3" stroke-linecap="round" stroke-linejoin="round" stroke-width="1.44"/>
</svg>
