<svg id="Grupo_343" data-name="Grupo 343" xmlns="http://www.w3.org/2000/svg" width="22.736" height="41.138" viewBox="0 0 22.736 41.138">
  <path id="Trazado_445" data-name="Trazado 445" d="M301.253,97.621h-3.4l.546-3.629,9.441-6.648L306.809,85.9l-10.052,7.065-.674,4.624H286a1.02,1.02,0,0,0-.642.257.9.9,0,0,0-.257.642l.289,27.682a.871.871,0,0,0,.9.867H301a.913.913,0,0,0,.9-.867l.289-27.682a1.02,1.02,0,0,0-.257-.642A1.4,1.4,0,0,0,301.253,97.621Zm-.9,1.766-.064,6.134h-3.629l.9-6.134ZM287.123,125.3l-.289-25.916h8.928l-.9,6.134H287.99v3.532h1.766V107.32h10.5l-.193,17.984Z" transform="translate(-285.1 -85.9)" fill="#0069a3"/>
  <path id="Trazado_446" data-name="Trazado 446" d="M310.558,157.1a2.858,2.858,0,1,0,2.858,2.858A2.864,2.864,0,0,0,310.558,157.1Zm0,4.239a1.381,1.381,0,1,1,1.381-1.381A1.413,1.413,0,0,1,310.558,161.339Z" transform="translate(-300.442 -134.235)" fill="#0069a3"/>
  <path id="Trazado_447" data-name="Trazado 447" d="M300.812,177.5a2.312,2.312,0,1,0,2.312,2.312A2.3,2.3,0,0,0,300.812,177.5Zm0,3.179a.835.835,0,1,1,.835-.835A.829.829,0,0,1,300.812,180.679Z" transform="translate(-294.197 -148.084)" fill="#0069a3"/>
  <path id="Trazado_448" data-name="Trazado 448" d="M312.252,195.6a1.252,1.252,0,1,0,1.252,1.252A1.234,1.234,0,0,0,312.252,195.6Zm-.064,1.252a.064.064,0,1,1,.128,0C312.317,196.917,312.188,196.917,312.188,196.852Z" transform="translate(-302.683 -160.371)" fill="#0069a3"/>
</svg>
